<svg xmlns="http://www.w3.org/2000/svg" width="103" height="107.905" viewBox="0 0 103 107.905">
  <g id="Group_452" data-name="Group 452" transform="translate(-136 -180)">
    <path id="Path_696" data-name="Path 696" d="M249.268,0a4.9,4.9,0,0,0-4.9,4.9V24.524a4.9,4.9,0,1,0,9.81,0V4.9A4.9,4.9,0,0,0,249.268,0Z" transform="translate(-59.315 180)" fill="#69a03a"/>
    <path id="Path_697" data-name="Path 697" d="M249.27,372.364a4.9,4.9,0,0,0-4.9,4.9v19.619a4.9,4.9,0,0,0,9.81,0V377.269A4.9,4.9,0,0,0,249.27,372.364Z" transform="translate(-59.317 -113.888)" fill="#69a03a" opacity="0.57"/>
    <path id="Path_698" data-name="Path 698" d="M102.046,83.473,88.173,69.6a4.9,4.9,0,0,0-6.936,6.936L95.11,90.409a4.9,4.9,0,0,0,6.936-6.936Z" transform="translate(70.565 126.202)" fill="#69a03a" opacity="0.9"/>
    <path id="Path_699" data-name="Path 699" d="M421.987,232.727h-9.809a4.9,4.9,0,1,0,0,9.81h9.809a4.9,4.9,0,1,0,0-9.81Z" transform="translate(-187.892 -3.68)" fill="#69a03a" opacity="0.19"/>
    <path id="Path_700" data-name="Path 700" d="M351.475,332.9a4.9,4.9,0,0,0-6.936,6.936l13.873,13.873a4.9,4.9,0,0,0,6.936-6.936Z" transform="translate(-137.245 -81.61)" fill="#69a03a" opacity="0.37"/>
    <path id="Path_701" data-name="Path 701" d="M41.065,237.632a4.9,4.9,0,0,0-4.9-4.9H16.541a4.9,4.9,0,1,0,0,9.81H36.16A4.9,4.9,0,0,0,41.065,237.632Z" transform="translate(124.364 -3.68)" fill="#69a03a" opacity="0.8"/>
    <path id="Path_702" data-name="Path 702" d="M102.047,332.9a4.9,4.9,0,0,0-6.936,0L81.238,346.776a4.9,4.9,0,0,0,6.936,6.936l13.873-13.873A4.9,4.9,0,0,0,102.047,332.9Z" transform="translate(70.565 -81.609)" fill="#69a03a" opacity="0.7"/>
  </g>
</svg>
