<svg xmlns="http://www.w3.org/2000/svg" width="48.5" height="29.1" viewBox="0 0 48.5 29.1">
  <g id="iconfinder__Mastercard_1156750" transform="translate(-0.5 -13.1)">
    <g id="Group_2620" data-name="Group 2620" transform="translate(19.9 13.1)">
      <g id="Group_2619" data-name="Group 2619">
        <path id="Path_751" data-name="Path 751" d="M54.8,27.65a14.55,14.55,0,1,1-29.1,0h0a14.55,14.55,0,1,1,29.1,0Z" transform="translate(-25.7 -13.1)" fill="#ffb600"/>
      </g>
    </g>
    <g id="Group_2622" data-name="Group 2622" transform="translate(19.9 13.1)">
      <g id="Group_2621" data-name="Group 2621">
        <path id="Path_752" data-name="Path 752" d="M40.25,13.1A14.588,14.588,0,0,1,54.8,27.65h0a14.55,14.55,0,1,1-29.1,0" transform="translate(-25.7 -13.1)" fill="#f7981d"/>
      </g>
    </g>
    <g id="Group_2624" data-name="Group 2624" transform="translate(34.45 13.1)">
      <g id="Group_2623" data-name="Group 2623">
        <path id="Path_753" data-name="Path 753" d="M44.6,13.1A14.588,14.588,0,0,1,59.15,27.65h0A14.538,14.538,0,0,1,44.6,42.2" transform="translate(-44.6 -13.1)" fill="#ff8500"/>
      </g>
    </g>
    <g id="Group_2626" data-name="Group 2626" transform="translate(0.5 13.1)">
      <g id="Group_2625" data-name="Group 2625">
        <path id="Path_754" data-name="Path 754" d="M14.9,13.1a14.551,14.551,0,0,0,.154,29.1,14.72,14.72,0,0,0,9.777-3.772h0a13.833,13.833,0,0,0,1.463-1.54h-3a17.76,17.76,0,0,1-1.078-1.463h5.158a9.862,9.862,0,0,0,.847-1.54H21.363a9.175,9.175,0,0,1-.616-1.54h8.006a15.287,15.287,0,0,0,.77-4.619,19.871,19.871,0,0,0-.308-3.079h-8.93a11.255,11.255,0,0,1,.385-1.54h8.006a9.176,9.176,0,0,0-.616-1.54H21.286a15.267,15.267,0,0,1,.847-1.54h5.158a7.321,7.321,0,0,0-1.155-1.54H23.287a13.122,13.122,0,0,1,1.463-1.463,14.206,14.206,0,0,0-9.777-3.772C14.973,13.1,14.973,13.1,14.9,13.1Z" transform="translate(-0.5 -13.1)" fill="#ff5050"/>
      </g>
    </g>
    <g id="Group_2628" data-name="Group 2628" transform="translate(0.5 13.254)">
      <g id="Group_2627" data-name="Group 2627">
        <path id="Path_755" data-name="Path 755" d="M.5,27.7a14.538,14.538,0,0,0,14.55,14.55,14.72,14.72,0,0,0,9.777-3.772h0a13.834,13.834,0,0,0,1.463-1.54h-3a17.759,17.759,0,0,1-1.078-1.463h5.158a9.862,9.862,0,0,0,.847-1.54H21.363a9.175,9.175,0,0,1-.616-1.54h8.006a15.287,15.287,0,0,0,.77-4.619,19.871,19.871,0,0,0-.308-3.079h-8.93a11.255,11.255,0,0,1,.385-1.54h8.006a9.176,9.176,0,0,0-.616-1.54H21.286a15.267,15.267,0,0,1,.847-1.54h5.158a7.321,7.321,0,0,0-1.155-1.54H23.287a13.122,13.122,0,0,1,1.463-1.463A14.206,14.206,0,0,0,14.973,13.3H14.9" transform="translate(-0.5 -13.3)" fill="#e52836"/>
      </g>
    </g>
    <g id="Group_2630" data-name="Group 2630" transform="translate(14.896 13.254)">
      <g id="Group_2629" data-name="Group 2629">
        <path id="Path_756" data-name="Path 756" d="M19.354,42.246a14.72,14.72,0,0,0,9.777-3.772h0a13.834,13.834,0,0,0,1.463-1.54h-3a17.759,17.759,0,0,1-1.078-1.463h5.158a9.862,9.862,0,0,0,.847-1.54H25.667a9.175,9.175,0,0,1-.616-1.54h8.006a15.287,15.287,0,0,0,.77-4.619,19.871,19.871,0,0,0-.308-3.079h-8.93a11.255,11.255,0,0,1,.385-1.54H32.98a9.176,9.176,0,0,0-.616-1.54H25.59a15.267,15.267,0,0,1,.847-1.54h5.158a7.321,7.321,0,0,0-1.155-1.54H27.591a13.122,13.122,0,0,1,1.463-1.463A14.206,14.206,0,0,0,19.277,13.3H19.2" transform="translate(-19.2 -13.3)" fill="#cb2026"/>
      </g>
    </g>
    <g id="Group_2651" data-name="Group 2651" transform="translate(1.886 23.878)">
      <g id="Group_2632" data-name="Group 2632" transform="translate(16.09 0.693)">
        <g id="Group_2631" data-name="Group 2631">
          <path id="Path_757" data-name="Path 757" d="M25.433,34.775l.231-1.309a3.334,3.334,0,0,1-.385.077c-.539,0-.616-.308-.539-.462l.462-2.694h.847l.231-1.463h-.77L25.664,28h-1.54s-.924,5.081-.924,5.7a1.156,1.156,0,0,0,1.232,1.309A2.363,2.363,0,0,0,25.433,34.775Z" transform="translate(-23.2 -28)" fill="#fff"/>
        </g>
      </g>
      <g id="Group_2634" data-name="Group 2634" transform="translate(18.861 1.53)">
        <g id="Group_2633" data-name="Group 2633">
          <path id="Path_758" data-name="Path 758" d="M26.8,32.561a2.449,2.449,0,0,0,2.694,2.694,4,4,0,0,0,1.617-.231l.308-1.463a4.615,4.615,0,0,1-1.617.385c-1.694,0-1.386-1.232-1.386-1.232h3.156A9.982,9.982,0,0,0,31.8,31.33,2.086,2.086,0,0,0,29.571,29.1C27.955,28.943,26.8,30.637,26.8,32.561Zm2.694-2.233c.847,0,.693,1,.693,1.078H28.494C28.494,31.33,28.648,30.329,29.494,30.329Z" transform="translate(-26.8 -29.087)" fill="#fff"/>
        </g>
      </g>
      <g id="Group_2636" data-name="Group 2636" transform="translate(27.099)">
        <g id="Group_2635" data-name="Group 2635" transform="translate(0)">
          <path id="Path_759" data-name="Path 759" d="M41.734,34.568l.308-1.694a3.783,3.783,0,0,1-1.309.385c-1.078,0-1.54-.847-1.54-1.771,0-1.848.924-2.848,2-2.848a2.571,2.571,0,0,1,1.386.462l.231-1.617a5.413,5.413,0,0,0-1.771-.385c-1.771,0-3.541,1.54-3.541,4.465,0,1.925.924,3.233,2.771,3.233A6.909,6.909,0,0,0,41.734,34.568Z" transform="translate(-37.5 -27.1)" fill="#fff"/>
        </g>
      </g>
      <g id="Group_2638" data-name="Group 2638" transform="translate(6.929 1.386)">
        <g id="Group_2637" data-name="Group 2637">
          <path id="Path_760" data-name="Path 760" d="M14.225,28.9a5.452,5.452,0,0,0-1.848.308l-.231,1.309a4.551,4.551,0,0,1,1.694-.308c.539,0,1,.077,1,.539,0,.308-.077.385-.077.385h-.693c-1.309,0-2.771.539-2.771,2.31,0,1.386.924,1.694,1.463,1.694a2.313,2.313,0,0,0,1.617-.693l-.077.616h1.386l.616-4.234A1.825,1.825,0,0,0,14.225,28.9Zm.308,3.464c0,.231-.154,1.463-1.078,1.463a.6.6,0,0,1-.616-.616c0-.385.231-.924,1.386-.924A1.214,1.214,0,0,0,14.533,32.364Z" transform="translate(-11.3 -28.9)" fill="#fff"/>
        </g>
      </g>
      <g id="Group_2640" data-name="Group 2640" transform="translate(11.625 1.309)">
        <g id="Group_2639" data-name="Group 2639">
          <path id="Path_761" data-name="Path 761" d="M19.171,35.113a1.973,1.973,0,0,0,2.31-2c0-1.925-1.848-1.54-1.848-2.31,0-.385.308-.539.847-.539.231,0,1.078.077,1.078.077l.231-1.386a5.848,5.848,0,0,0-1.463-.154c-1.155,0-2.31.462-2.31,2,0,1.771,1.925,1.617,1.925,2.31,0,.462-.539.539-.924.539a5.034,5.034,0,0,1-1.386-.231L17.4,34.8C17.477,34.959,17.862,35.113,19.171,35.113Z" transform="translate(-17.4 -28.8)" fill="#fff"/>
        </g>
      </g>
      <g id="Group_2642" data-name="Group 2642" transform="translate(39.724 0.154)">
        <g id="Group_2641" data-name="Group 2641">
          <path id="Path_762" data-name="Path 762" d="M58.288,27.3l-.308,2.079a2.135,2.135,0,0,0-1.463-.77c-1.386,0-2.617,1.694-2.617,3.7,0,1.232.616,2.54,1.925,2.54a2.055,2.055,0,0,0,1.463-.616l-.077.539h1.54L59.9,27.377ZM57.6,31.38c0,.847-.385,1.925-1.232,1.925-.539,0-.847-.462-.847-1.232,0-1.232.539-2,1.232-2C57.287,30.071,57.6,30.456,57.6,31.38Z" transform="translate(-53.9 -27.3)" fill="#fff"/>
        </g>
      </g>
      <g id="Group_2644" data-name="Group 2644" transform="translate(0 0.154)">
        <g id="Group_2643" data-name="Group 2643">
          <path id="Path_763" data-name="Path 763" d="M3.763,34.691l.924-5.543.154,5.543H5.918l2-5.543-.847,5.543H8.69L9.921,27.3H7.381l-1.54,4.542L5.764,27.3H3.532L2.3,34.691Z" transform="translate(-2.3 -27.3)" fill="#fff"/>
        </g>
      </g>
      <g id="Group_2646" data-name="Group 2646" transform="translate(23.634 1.54)">
        <g id="Group_2645" data-name="Group 2645">
          <path id="Path_764" data-name="Path 764" d="M34.694,35.1c.462-2.54.539-4.619,1.617-4.234a6.042,6.042,0,0,1,.539-1.771h-.308c-.693,0-1.232.924-1.232.924l.154-.847H34l-1,6h1.694Z" transform="translate(-33 -29.1)" fill="#fff"/>
        </g>
      </g>
      <g id="Group_2648" data-name="Group 2648" transform="translate(31.949 1.386)">
        <g id="Group_2647" data-name="Group 2647">
          <path id="Path_765" data-name="Path 765" d="M46.725,28.9a5.452,5.452,0,0,0-1.848.308l-.231,1.309a4.551,4.551,0,0,1,1.694-.308c.539,0,1,.077,1,.539,0,.308-.077.385-.077.385h-.693c-1.309,0-2.771.539-2.771,2.31,0,1.386.924,1.694,1.463,1.694a2.313,2.313,0,0,0,1.617-.693l-.077.616h1.386l.616-4.234A1.8,1.8,0,0,0,46.725,28.9Zm.385,3.464c0,.231-.154,1.463-1.078,1.463a.6.6,0,0,1-.616-.616c0-.385.231-.924,1.386-.924C47.033,32.364,47.033,32.364,47.11,32.364Z" transform="translate(-43.8 -28.9)" fill="#fff"/>
        </g>
      </g>
      <g id="Group_2650" data-name="Group 2650" transform="translate(36.568 1.54)">
        <g id="Group_2649" data-name="Group 2649">
          <path id="Path_766" data-name="Path 766" d="M51.494,35.1c.462-2.54.539-4.619,1.617-4.234a6.042,6.042,0,0,1,.539-1.771h-.308c-.693,0-1.232.924-1.232.924l.154-.847H50.8l-1,6h1.694Z" transform="translate(-49.8 -29.1)" fill="#fff"/>
        </g>
      </g>
    </g>
    <g id="Group_2672" data-name="Group 2672" transform="translate(1.886 23.878)">
      <g id="Group_2653" data-name="Group 2653" transform="translate(15.936 0.693)">
        <g id="Group_2652" data-name="Group 2652">
          <path id="Path_767" data-name="Path 767" d="M23,33.7a1.156,1.156,0,0,0,1.232,1.309,2.93,2.93,0,0,0,1.155-.231l.231-1.309a3.334,3.334,0,0,1-.385.077c-.539,0-.616-.308-.539-.462l.462-2.694H26l.231-1.463h-.77L25.617,28" transform="translate(-23 -28)" fill="#dce5e5"/>
        </g>
      </g>
      <g id="Group_2655" data-name="Group 2655" transform="translate(19.631 1.53)">
        <g id="Group_2654" data-name="Group 2654">
          <path id="Path_768" data-name="Path 768" d="M27.8,32.561c0,2.156.693,2.694,1.925,2.694a4,4,0,0,0,1.617-.231l.308-1.463a4.615,4.615,0,0,1-1.617.385c-1.694,0-1.386-1.232-1.386-1.232H31.8a9.982,9.982,0,0,0,.231-1.386A2.086,2.086,0,0,0,29.8,29.1C28.185,28.943,27.8,30.637,27.8,32.561Zm1.925-2.233c.847,0,1,1,1,1.078h-2C28.724,31.33,28.878,30.329,29.725,30.329Z" transform="translate(-27.8 -29.087)" fill="#dce5e5"/>
        </g>
      </g>
      <g id="Group_2657" data-name="Group 2657" transform="translate(27.868)">
        <g id="Group_2656" data-name="Group 2656">
          <path id="Path_769" data-name="Path 769" d="M41.964,34.568l.308-1.694a3.783,3.783,0,0,1-1.309.385c-1.078,0-1.54-.847-1.54-1.771,0-1.848.924-2.848,2-2.848a2.571,2.571,0,0,1,1.386.462l.231-1.617a5.413,5.413,0,0,0-1.771-.385c-1.771,0-2.771,1.54-2.771,4.465,0,1.925.154,3.233,2,3.233A6.909,6.909,0,0,0,41.964,34.568Z" transform="translate(-38.5 -27.1)" fill="#dce5e5"/>
        </g>
      </g>
      <g id="Group_2659" data-name="Group 2659" transform="translate(6.929 1.54)">
        <g id="Group_2658" data-name="Group 2658">
          <path id="Path_770" data-name="Path 770" d="M12.147,30.64a4.551,4.551,0,0,1,1.694-.308c.539,0,1,.077,1,.539,0,.308-.077.385-.077.385h-.693c-1.309,0-2.771.539-2.771,2.31,0,1.386.924,1.694,1.463,1.694a2.313,2.313,0,0,0,1.617-.693l-.077.616h1.386l.616-4.234c0-1.771-1.54-1.848-2.156-1.848M15.3,32.41a2.52,2.52,0,0,1-1.848,1.463.6.6,0,0,1-.616-.616c0-.385.231-.924,1.386-.924A6.29,6.29,0,0,0,15.3,32.41Z" transform="translate(-11.3 -29.1)" fill="#dce5e5"/>
        </g>
      </g>
      <g id="Group_2661" data-name="Group 2661" transform="translate(11.702 1.309)">
        <g id="Group_2660" data-name="Group 2660">
          <path id="Path_771" data-name="Path 771" d="M17.5,34.959a6.516,6.516,0,0,0,1.771.154,1.973,1.973,0,0,0,2.31-2c0-1.925-1.848-1.54-1.848-2.31,0-.385.308-.539.847-.539.231,0,1.078.077,1.078.077l.231-1.386a5.848,5.848,0,0,0-1.463-.154c-1.155,0-1.54.462-1.54,2,0,1.771,1.155,1.617,1.155,2.31,0,.462-.539.539-.924.539" transform="translate(-17.5 -28.8)" fill="#dce5e5"/>
        </g>
      </g>
      <g id="Group_2663" data-name="Group 2663" transform="translate(40.488 0.231)">
        <g id="Group_2662" data-name="Group 2662">
          <path id="Path_772" data-name="Path 772" d="M58.209,29.4a2.135,2.135,0,0,0-1.463-.77c-1.386,0-1.848,1.694-1.848,3.7,0,1.232-.154,2.54,1.155,2.54a2.055,2.055,0,0,0,1.463-.616l-.077.539h1.54L60.133,27.4m-2,4c0,.847-.693,1.925-1.54,1.925-.539,0-.847-.462-.847-1.232,0-1.232.539-2,1.232-2A1.176,1.176,0,0,1,58.132,31.4Z" transform="translate(-54.893 -27.4)" fill="#dce5e5"/>
        </g>
      </g>
      <g id="Group_2665" data-name="Group 2665" transform="translate(0 0.154)">
        <g id="Group_2664" data-name="Group 2664">
          <path id="Path_773" data-name="Path 773" d="M3.763,34.691l.924-5.543.154,5.543H5.918l2-5.543-.847,5.543H8.69L9.921,27.3H8L5.841,31.842,5.764,27.3H4.917L2.3,34.691Z" transform="translate(-2.3 -27.3)" fill="#dce5e5"/>
        </g>
      </g>
      <g id="Group_2667" data-name="Group 2667" transform="translate(23.711 1.54)">
        <g id="Group_2666" data-name="Group 2666">
          <path id="Path_774" data-name="Path 774" d="M33.1,35.1h1.617c.462-2.54.539-4.619,1.617-4.234a6.042,6.042,0,0,1,.539-1.771h-.308c-.693,0-1.232.924-1.232.924l.154-.847" transform="translate(-33.1 -29.1)" fill="#dce5e5"/>
        </g>
      </g>
      <g id="Group_2669" data-name="Group 2669" transform="translate(31.949 1.54)">
        <g id="Group_2668" data-name="Group 2668">
          <path id="Path_775" data-name="Path 775" d="M44.647,30.64a4.551,4.551,0,0,1,1.694-.308c.539,0,1,.077,1,.539,0,.308-.077.385-.077.385h-.693c-1.309,0-2.771.539-2.771,2.31,0,1.386.924,1.694,1.463,1.694a2.313,2.313,0,0,0,1.617-.693l-.077.616h1.386l.616-4.234c0-1.771-1.54-1.848-2.156-1.848M47.8,32.41a2.52,2.52,0,0,1-1.848,1.463.6.6,0,0,1-.616-.616c0-.385.231-.924,1.386-.924A6.773,6.773,0,0,0,47.8,32.41Z" transform="translate(-43.8 -29.1)" fill="#dce5e5"/>
        </g>
      </g>
      <g id="Group_2671" data-name="Group 2671" transform="translate(36.645 1.54)">
        <g id="Group_2670" data-name="Group 2670">
          <path id="Path_776" data-name="Path 776" d="M49.9,35.1h1.617c.462-2.54.539-4.619,1.617-4.234a6.042,6.042,0,0,1,.539-1.771h-.308c-.693,0-1.232.924-1.232.924l.154-.847" transform="translate(-49.9 -29.1)" fill="#dce5e5"/>
        </g>
      </g>
    </g>
  </g>
</svg>
