<svg xmlns="http://www.w3.org/2000/svg" width="48.95" height="29.296" viewBox="0 0 48.95 29.296">
  <g id="Group_2785" data-name="Group 2785" transform="translate(-245.956 -421.083)">
    <g id="Group_2783" data-name="Group 2783" transform="translate(245.956 421.083)">
      <path id="Path_824" data-name="Path 824" d="M84.6,155.949a14.646,14.646,0,1,0-9.812,3.787,14.581,14.581,0,0,0,9.812-3.787Z" transform="translate(-60.13 -130.442)" fill="#009ddd"/>
      <path id="Path_825" data-name="Path 825" d="M230.767,178.568a14.641,14.641,0,0,0,0-21.72v21.72Z" transform="translate(-206.293 -153.061)" fill="#009ddd"/>
    </g>
    <path id="Path_826" data-name="Path 826" d="M213.885,130.446a14.646,14.646,0,0,0-9.843,3.787,18.805,18.805,0,0,0-1.464,1.55h2.955a18.807,18.807,0,0,1,1.119,1.548H201.46q-.472.775-.861,1.549h6.887c.231.516.459,1.034.631,1.55H200a14.018,14.018,0,0,0-.431,1.578h8.98a15.594,15.594,0,0,1,.317,3.1,14.742,14.742,0,0,1-.748,4.649H200q.256.774.6,1.549h6.887a15.928,15.928,0,0,1-.832,1.549H201.46a15.56,15.56,0,0,0,1.119,1.549h2.955a15.077,15.077,0,0,1-1.491,1.549,14.647,14.647,0,1,0,9.843-25.508Z" transform="translate(66.387 290.637)" fill="#ed1c2e"/>
    <g id="Group_2784" data-name="Group 2784" transform="translate(250.834 431.958)">
      <path id="Path_827" data-name="Path 827" d="M366.194,251.93a.479.479,0,0,1,.488-.459.452.452,0,0,1,.459.459.478.478,0,0,1-.459.488.5.5,0,0,1-.488-.488Zm.488.373a.356.356,0,0,0,.344-.373.332.332,0,0,0-.344-.345.355.355,0,0,0-.372.345.379.379,0,0,0,.372.373Zm-.058-.172h-.114v-.4h.172c.056,0,.086,0,.115.029s.056.056.056.086c0,.058-.028.115-.086.115l.086.172h-.115l-.056-.144h-.057v.144Zm0-.229h.114v-.087h-.114v.087Z" transform="translate(-327.174 -244.987)" fill="#fff"/>
      <path id="Path_828" data-name="Path 828" d="M102.088,213.7h-1.835l1.09-5.71-2.5,5.71H97.181l-.286-5.681L95.8,213.7H94.14l1.407-7.431h2.868l.143,4.59,2.011-4.59h2.952Z" transform="translate(-94.14 -206.266)" fill="#fff"/>
      <path id="Path_829" data-name="Path 829" d="M275.127,213.615a4.659,4.659,0,0,1-1.321.2c-.917,0-1.435-.459-1.435-1.319a4.063,4.063,0,0,1,.057-.546l.114-.6.088-.458.831-4.619h1.807l-.257,1.376h.946l-.258,1.465h-.947l-.459,2.524a1.391,1.391,0,0,0-.057.258c0,.316.2.458.632.458a2.084,2.084,0,0,0,.487-.057l-.23,1.321Z" transform="translate(-246.808 -206.269)" fill="#fff"/>
      <path id="Path_830" data-name="Path 830" d="M300.313,215.582a.488.488,0,0,0-.2-.059c-.087-.03-.144-.03-.144-.057h-.2a1.886,1.886,0,0,0-1.579.975l.172-.918H296.7l-1.118,6.054h1.836c.66-3.7.918-4.362,1.807-4.362.057,0,.145.029.23.029l.2.057.661-1.72Z" transform="translate(-266.686 -214.147)" fill="#fff"/>
      <path id="Path_831" data-name="Path 831" d="M237.054,217.109c0,.747.431,1.291,1.407,1.665.747.315.861.4.861.689,0,.372-.345.545-1.062.545a5.914,5.914,0,0,1-1.665-.258l-.23,1.406h.087l.315.085c.114,0,.286.029.487.029a7.507,7.507,0,0,0,1.034.056c1.922,0,2.841-.631,2.841-2.008,0-.832-.373-1.32-1.32-1.693-.775-.287-.861-.373-.861-.66,0-.315.316-.487.918-.487a12.021,12.021,0,0,1,1.319.085l.259-1.377a11.011,11.011,0,0,0-1.607-.114c-2.065,0-2.783.917-2.783,2.035Z" transform="translate(-215.967 -213.811)" fill="#fff"/>
      <path id="Path_832" data-name="Path 832" d="M160.606,221.236h-1.493l.03-.632a2.487,2.487,0,0,1-1.922.718,1.574,1.574,0,0,1-1.664-1.635c0-1.464,1.175-2.324,3.214-2.324a7.07,7.07,0,0,1,.745.03,1.148,1.148,0,0,0,.057-.373c0-.4-.317-.545-1.177-.545a7.706,7.706,0,0,0-1.491.144l-.258.086-.173.028.258-1.348a8.26,8.26,0,0,1,2.182-.316c1.577,0,2.381.6,2.381,1.749a6.417,6.417,0,0,1-.143,1.206l-.373,2.152-.057.372-.059.317-.028.2-.029.173Zm-1.32-2.7a2.377,2.377,0,0,0-.4-.028c-1.034,0-1.549.316-1.549.919a.587.587,0,0,0,.63.631,1.408,1.408,0,0,0,1.321-1.521Z" transform="translate(-146.748 -213.805)" fill="#fff"/>
      <path id="Path_833" data-name="Path 833" d="M202.922,220.912a6.944,6.944,0,0,1-1.865.258c-2.035,0-3.1-.947-3.1-2.726a3.3,3.3,0,0,1,3.186-3.587,2.172,2.172,0,0,1,2.44,2.181,6.166,6.166,0,0,1-.2,1.493h-3.646v.2c0,.689.517,1.061,1.578,1.061a4.847,4.847,0,0,0,1.893-.372l-.287,1.491Zm-.975-3.586v-.316c0-.487-.317-.776-.861-.776-.574,0-.976.4-1.149,1.092Z" transform="translate(-183.068 -213.625)" fill="#fff"/>
      <path id="Path_834" data-name="Path 834" d="M329.821,218.124a3.228,3.228,0,0,1-3.559,2.9,2.571,2.571,0,0,1-2.867-2.782,3.388,3.388,0,0,1,3.585-3.588,2.639,2.639,0,0,1,2.9,2.726,3.088,3.088,0,0,1-.057.747Zm-1.893-.776c0-.631-.259-1.2-1-1.2-.92,0-1.493,1.089-1.493,2.065,0,.8.4,1.349,1.034,1.349a1.779,1.779,0,0,0,1.406-1.463,3.168,3.168,0,0,0,.057-.748Z" transform="translate(-290.514 -213.448)" fill="#fff"/>
    </g>
  </g>
</svg>
