<svg id="paypal" xmlns="http://www.w3.org/2000/svg" width="35.465" height="35.465" viewBox="0 0 35.465 35.465">
  <path id="Path_818" data-name="Path 818" d="M35.465,17.732A17.732,17.732,0,1,1,17.732,0,17.732,17.732,0,0,1,35.465,17.732Zm0,0" fill="#005fd2"/>
  <path id="Path_819" data-name="Path 819" d="M141.288,112.374c-2.854-2.861-7.982-8-7.982-8a4.655,4.655,0,0,0-1.178-.893l-2.9-2.9a4.752,4.752,0,0,0-1.45-1.032,4.832,4.832,0,0,0-2.068-.431h-7.308a.971.971,0,0,0-.946.75l-3.839,16.381a.968.968,0,0,0,.283.932l10.713,10.755A17.893,17.893,0,0,0,141.288,112.374Zm0,0" transform="translate(-105.97 -92.503)" fill="#003d8d"/>
  <path id="Path_820" data-name="Path 820" d="M175.758,154.176a.972.972,0,0,1,.946-.75h7.308a4.827,4.827,0,0,1,2.068.431A4.706,4.706,0,0,1,187.632,155a5.055,5.055,0,0,1,.964,1.624,5.4,5.4,0,0,1,.335,1.877,5.906,5.906,0,0,1-.615,2.575,7.817,7.817,0,0,1-1.663,2.283,8.774,8.774,0,0,1-2.432,1.636,7,7,0,0,1-2.949.634h-3.159l-1.329,5.384a.972.972,0,0,1-.943.739h-2.977a.972.972,0,0,1-.946-1.193Zm0,0" transform="translate(-160.082 -142.897)" fill="#78b9eb"/>
  <path id="Path_821" data-name="Path 821" d="M264.967,156.626A5.065,5.065,0,0,0,264,155a4.709,4.709,0,0,0-1.551-1.141,4.527,4.527,0,0,0-1.366-.388,5.452,5.452,0,0,0-.7-.043H254v14.16l.484-1.958h3.159a6.993,6.993,0,0,0,2.949-.634,8.794,8.794,0,0,0,2.433-1.637,7.819,7.819,0,0,0,1.663-2.284,5.9,5.9,0,0,0,.615-2.574A5.4,5.4,0,0,0,264.967,156.626Zm0,0" transform="translate(-236.478 -142.863)" fill="#5698e1"/>
  <path id="Path_822" data-name="Path 822" d="M117.46,99.867a.971.971,0,0,1,.946-.75h7.308a4.832,4.832,0,0,1,2.068.431,4.711,4.711,0,0,1,1.551,1.142,5.059,5.059,0,0,1,.964,1.624,5.405,5.405,0,0,1,.335,1.877,5.9,5.9,0,0,1-.615,2.575,7.815,7.815,0,0,1-1.663,2.283,8.774,8.774,0,0,1-2.432,1.636,6.991,6.991,0,0,1-2.949.634h-3.236l-1.258,5.372a.971.971,0,0,1-.946.75h-2.968a.971.971,0,0,1-.946-1.193Zm0,0" transform="translate(-105.79 -92.315)" fill="#fff"/>
  <path id="Path_823" data-name="Path 823" d="M261.085,102.959a5.522,5.522,0,0,0-.192-.642,5.056,5.056,0,0,0-.964-1.623,4.706,4.706,0,0,0-1.551-1.142,4.833,4.833,0,0,0-2.069-.431H254V111.31a6.94,6.94,0,0,0,2.518-.621,8.763,8.763,0,0,0,2.432-1.637,7.821,7.821,0,0,0,1.663-2.283,5.908,5.908,0,0,0,.615-2.575A5.34,5.34,0,0,0,261.085,102.959Zm0,0" transform="translate(-236.445 -92.287)" fill="#fff5cb"/>
</svg>
